inDegrees=yes
name=IK-live
DataType=double
version=3
OpenSimVersion=4.1
endheader
time	pelvis_tilt	pelvis_list	pelvis_rotation	pelvis_tx	pelvis_ty	pelvis_tz	hip_flexion_r	hip_adduction_r	hip_rotation_r	knee_angle_r	ankle_angle_r	subtalar_angle_r	mtp_angle_r	hip_flexion_l	hip_adduction_l	hip_rotation_l	knee_angle_l	ankle_angle_l	subtalar_angle_l	mtp_angle_l	lumbar_extension	lumbar_bending	lumbar_rotation	neck_flex	neck_latbend	neck_rot	arm_flex_r	arm_add_r	arm_rot_r	elbow_flex_r	pro_sup_r	wrist_flex_r	wrist_dev_r	arm_flex_l	arm_add_l	arm_rot_l	elbow_flex_l	pro_sup_l	wrist_flex_l	wrist_dev_l
6.7258534	41.49057748496277	38.81133018025211	-280.5549254691389	0.2341366603171506	0.04326292228651554	-1.326684523481465	-22.57117169827992	-1.591976316804377	-3.241458145969817	5.899560354604904	2.451982624139334	1.987972377786656	0	-24.74788768789517	-3.395140484746916	-11.58000132048591	9.793848132074926	-0.4439473045988533	4.250290820099795	0	-21.37711699760957	1.659277491615732	3.206407148933037	0	0	0	0.7892554357075727	-15.17646290409083	33.29962743329179	7.167866016348197	24.90444359582262	0	0.02622777687559361	5.879420645179349	-13.23018959601779	43.88134420799894	6.986855320631114	33.49499396386499	0	0.02622777687559361
6.8898272	29.30395042656288	36.90902605827396	-268.7002322321922	0.2341366603171506	0.04326292228651554	-1.326684523481465	-22.57117169827992	-1.591976316804377	-3.241458145969817	5.899560354604904	2.451982624139334	1.987972377786656	0	-24.74788768789517	-3.395140484746916	-11.58000132048591	9.793848132074926	-0.4439473045988533	4.250290820099795	0	-21.37711699760957	1.659277491615732	3.206407148933037	0	0	0	0.7878124179221724	-15.1764692270816	33.3015070335109	7.141820291590462	24.89957373374736	0	0.02400002044049799	5.878107261302137	-13.23012616266836	43.88414729276879	6.960085645263455	33.49260356362192	0	0.02400002044049799
7.0486544	24.75293200583668	36.34035734786418	-265.2674508310399	0.2341366603171506	0.04326292228651554	-1.326684523481465	-22.57117169827992	-1.591976316804377	-3.241458145969817	5.899560354604904	2.451982624139334	1.987972377786656	0	-24.74788768789517	-3.395140484746916	-11.58000132048591	9.793848132074926	-0.4439473045988533	4.250290820099795	0	-21.37711699760957	1.659277491615732	3.206407148933037	0	0	0	0.7873862149580318	-15.17647109473741	33.30206221619566	7.134249333294199	24.89813610926773	0	0.02334246705449198	5.877719346197292	-13.23010742601889	43.88497520466295	6.952311874875474	33.49189760904214	0	0.02334246705449198
7.2015794	22.57537684041223	36.11637245854648	-263.7686188555401	0.2341366603171506	0.04326292228651554	-1.326684523481465	-22.57117169827992	-1.591976316804377	-3.241458145969817	5.899560354604904	2.451982624139334	1.987972377786656	0	-24.74788768789517	-3.395140484746916	-11.58000132048591	9.793848132074926	-0.4439473045988533	4.250290820099795	0	-21.37711699760957	1.659277491615732	3.206407148933037	0	0	0	0.7869901515196185	-15.17647283070755	33.30257842462229	7.127187019635137	24.89679744794203	0	0.02272973720428374	5.877358871851281	-13.23009001045849	43.88574512089675	6.945060553064951	33.49124048088575	0	0.02272973720428374
7.3625341	22.27768708295106	35.8806804490164	-263.6203282069116	0.2341366603171506	0.04326292228651554	-1.326684523481465	-22.57117169827992	-1.591976316804377	-3.241458145969817	5.899560354604904	2.451982624139334	1.987972377786656	0	-24.74788768789517	-3.395140484746916	-11.58000132048591	9.793848132074926	-0.4439473045988533	4.250290820099795	0	-21.37711699760957	1.659277491615732	3.206407148933037	0	0	0	0.7869456319021272	-15.17647302594667	33.3026365253612	7.126392104684357	24.89664632846275	0	0.02266047302875766	5.877318354942904	-13.23008805178378	43.8858318075869	6.944244705695158	33.49116634083192	0	0.02266047302875766
7.5144426	22.92313874783411	35.34144782533877	-264.0626201472193	0.2341366603171506	0.04326292228651554	-1.326684523481465	-22.57117169827992	-1.591976316804377	-3.241458145969817	5.899560354604904	2.451982624139334	1.987972377786656	0	-24.74788768789517	-3.395140484746916	-11.58000132048591	9.793848132074926	-0.4439473045988533	4.250290820099795	0	-21.37711699760957	1.659277491615732	3.206407148933037	0	0	0	0.7866071022471716	-15.17647451123549	33.30307890560762	7.120124522751707	24.89549052948114	0	0.02212971828302776	5.877010281988881	-13.23007315108376	43.88649216689254	6.937801691789702	33.49060016263449	0	0.02212971828302776
7.6772441	21.45657711187738	35.18458321964171	-263.1538748275867	0.2341366603171506	0.04326292228651554	-1.326684523481465	-22.57117169827992	-1.591976316804377	-3.241458145969817	5.899560354604904	2.451982624139334	1.987972377786656	0	-24.74788768789517	-3.395140484746916	-11.58000132048591	9.793848132074926	-0.4439473045988533	4.250290820099795	0	-21.37711699760957	1.659277491615732	3.206407148933037	0	0	0	0.7851152791675564	-15.17648103930026	33.30501551828772	7.094182418977989	24.89051608889297	0	0.01986235778996243	5.875652257623903	-13.23000766050412	43.88937733631965	6.911166089233061	33.48815290321163	0	0.01986235778996243
7.8362101	21.29720891041982	35.28845201633663	-262.9706833343528	0.2341366603171506	0.04326292228651554	-1.326684523481465	-22.57117169827992	-1.591976316804377	-3.241458145969817	5.899560354604904	2.451982624139334	1.987972377786656	0	-24.74788768789517	-3.395140484746916	-11.58000132048591	9.793848132074926	-0.4439473045988533	4.250290820099795	0	-21.37711699760957	1.659277491615732	3.206407148933037	0	0	0	0.7851024271298945	-15.17648109553862	33.30503219888108	7.093962915725502	24.8904733162214	0	0.01984287793265219	5.875640558220586	-13.23000709631216	43.8894021833377	6.910940922828399	33.48813184610428	0	0.01984287793265219
7.9891412	21.6139970822161	35.15927878984305	-263.1543538931065	0.2341366603171506	0.04326292228651554	-1.326684523481465	-22.57117169827992	-1.591976316804377	-3.241458145969817	5.899560354604904	2.451982624139334	1.987972377786656	0	-24.74788768789517	-3.395140484746916	-11.58000132048591	9.793848132074926	-0.4439473045988533	4.250290820099795	0	-21.37711699760957	1.659277491615732	3.206407148933037	0	0	0	0.7851374020658264	-15.17648094240995	33.30498674067208	7.094570119765082	24.8905903448044	0	0.01989627117563661	5.875672394428581	-13.23000863252403	43.88933443977265	6.911564045530839	33.48818939944476	0	0.01989627117563661
8.1500004	21.61736657163466	35.27052379619403	-263.0559952933068	0.2341366603171506	0.04326292228651554	-1.326684523481465	-22.57117169827992	-1.591976316804377	-3.241458145969817	5.899560354604904	2.451982624139334	1.987972377786656	0	-24.74788768789517	-3.395140484746916	-11.58000132048591	9.793848132074926	-0.4439473045988533	4.250290820099795	0	-21.37711699760957	1.659277491615732	3.206407148933037	0	0	0	0.7851450454089953	-15.17648090885874	33.30497674075571	7.094711458656296	24.89061654599005	0	0.01990831890917583	5.875679349802955	-13.2300089691163	43.88931950763676	6.911709260448914	33.48820222783964	0	0.01990831890917583
8.3018944	21.18690182249292	35.32534600661887	-262.6614366636551	0.2341366603171506	0.04326292228651554	-1.326684523481465	-22.57117169827992	-1.591976316804377	-3.241458145969817	5.899560354604904	2.451982624139334	1.987972377786656	0	-24.74788768789517	-3.395140484746916	-11.58000132048591	9.793848132074926	-0.4439473045988533	4.250290820099795	0	-21.37711699760957	1.659277491615732	3.206407148933037	0	0	0	0.7850995095808777	-15.1764811083116	33.30503598920448	7.093914525070156	24.89046359136454	0	0.01983844755359668	5.875637902444867	-13.23000696817154	43.88940783000233	6.91089138856061	33.48812705638353	0	0.01983844755359668
8.4648758	21.24485595910706	35.42295027143784	-262.7074049822086	0.2341366603171506	0.04326292228651554	-1.326684523481465	-22.57117169827992	-1.591976316804377	-3.241458145969817	5.899560354604904	2.451982624139334	1.987972377786656	0	-24.74788768789517	-3.395140484746916	-11.58000132048591	9.793848132074926	-0.4439473045988533	4.250290820099795	0	-21.37711699760957	1.659277491615732	3.206407148933037	0	0	0	0.785109212438092	-15.17648106573984	33.30502331042734	7.094090823582128	24.89049669213286	0	0.01985364393096672	5.875646732444277	-13.23000739525948	43.88938890534549	6.911072421887491	33.48814327911164	0	0.01985364393096672
8.6246907	21.87165362994942	35.37617887526924	-263.1467408641265	0.2341366603171506	0.04326292228651554	-1.326684523481465	-22.57117169827992	-1.591976316804377	-3.241458145969817	5.899560354604904	2.451982624139334	1.987972377786656	0	-24.74788768789517	-3.395140484746916	-11.58000132048591	9.793848132074926	-0.4439473045988533	4.250290820099795	0	-21.37711699760957	1.659277491615732	3.206407148933037	0	0	0	0.785181234145031	-15.17648075025726	33.30492958576119	7.095354512411244	24.89073876253832	0	0.0199642469652129	5.875712287172407	-13.23001056023431	43.88924918167735	6.912369429502954	33.4882622316351	0	0.0199642469652129
8.7765714	21.84460544804762	35.25138885605227	-263.1082120377514	0.2341366603171506	0.04326292228651554	-1.326684523481465	-22.57117169827992	-1.591976316804377	-3.241458145969817	5.899560354604904	2.451982624139334	1.987972377786656	0	-24.74788768789517	-3.395140484746916	-11.58000132048591	9.793848132074926	-0.4439473045988533	4.250290820099795	0	-21.37711699760957	1.659277491615732	3.206407148933037	0	0	0	0.7851754099907509	-15.17648077585967	33.30493723251019	7.095244651508751	24.89071855572709	0	0.01995492094775275	5.875706988083476	-13.23001030338548	43.88926061144895	6.912256569581518	33.48825235709953	0	0.01995492094775275
8.936534699999999	22.08779096007372	35.449531970881	-263.1700347429795	0.2341366603171506	0.04326292228651554	-1.326684523481465	-22.57117169827992	-1.591976316804377	-3.241458145969817	5.899560354604904	2.451982624139334	1.987972377786656	0	-24.74788768789517	-3.395140484746916	-11.58000132048591	9.793848132074926	-0.4439473045988533	4.250290820099795	0	-21.37711699760957	1.659277491615732	3.206407148933037	0	0	0	0.7852133425083727	-15.17648060955534	33.3048877598723	7.095924303112701	24.89084708994938	0	0.02001380318109584	5.875741511146877	-13.23001197178051	43.88918680858313	6.912954405773475	33.48831542466279	0	0.02001380318109584
9.0894806	21.94895073179213	35.4175347799076	-262.9922457950969	0.2341366603171506	0.04326292228651554	-1.326684523481465	-22.57117169827992	-1.591976316804377	-3.241458145969817	5.899560354604904	2.451982624139334	1.987972377786656	0	-24.74788768789517	-3.395140484746916	-11.58000132048591	9.793848132074926	-0.4439473045988533	4.250290820099795	0	-21.37711699760957	1.659277491615732	3.206407148933037	0	0	0	0.785199663779909	-15.17648066950892	33.30490558669324	7.095681956540998	24.89080087775667	0	0.01999265406068777	5.875729061478251	-13.23001137031559	43.88921339590694	6.912705665877956	33.48829273559531	0	0.01999265406068777
9.2522801	21.7568741444033	35.34399499046138	-262.4642633871003	0.2341366603171506	0.04326292228651554	-1.326684523481465	-22.57117169827992	-1.591976316804377	-3.241458145969817	5.899560354604904	2.451982624139334	1.987972377786656	0	-24.74788768789517	-3.395140484746916	-11.58000132048591	9.793848132074926	-0.4439473045988533	4.250290820099795	0	-21.37711699760957	1.659277491615732	3.206407148933037	0	0	0	0.7855728088345181	-15.17647903320325	33.30441860592769	7.102524776305062	24.89206905094655	0	0.02057416804729965	5.876068655613536	-13.23002778603545	43.88848673521236	6.919739512210744	33.48891444613191	0	0.02057416804729965
9.4122751	21.75753450664877	35.4401604532344	-261.9671546727891	0.2341366603171506	0.04326292228651554	-1.326684523481465	-22.57117169827992	-1.591976316804377	-3.241458145969817	5.899560354604904	2.451982624139334	1.987972377786656	0	-24.74788768789517	-3.395140484746916	-11.58000132048591	9.793848132074926	-0.4439473045988533	4.250290820099795	0	-21.37711699760957	1.659277491615732	3.206407148933037	0	0	0	0.7855921360294956	-15.17647894852506	33.30439343893141	7.102869778000747	24.89213420523686	0	0.02060396835642361	5.876086246909118	-13.23002863554165	43.88844920726631	6.920093872583075	33.48894643798636	0	0.02060396835642361
